pedal_clip_forces.mot
version=1
nRows=140
nColumns=4
inDegrees=yes
endheader
time	PedalClip_calcn_r_Fx	PedalClip_calcn_r_Fy	PedalClip_calcn_r_Fz
0.5184508	-59.3561386547468	-130.072075433471	-0
0.51889914	-59.41761501286	-129.920847230051	-0
0.51934749	-59.4790465101128	-129.768204224474	-0
0.51979583	-59.5403284215203	-129.614284297511	-0
0.52024417	-59.601334139059	-129.459430235177	-0
0.52069251	-59.6619802169031	-129.303956153896	-0
0.52114086	-59.7222531116195	-129.147860840809	-0
0.5215892	-59.7820873964962	-128.991058204555	-0
0.52203754	-59.8413832659273	-128.833812816606	-0
0.52248588	-59.9001083478986	-128.676367141412	-0
0.52293423	-59.9582081725985	-128.518860215091	-0
0.52338257	-60.0156558153932	-128.361353894549	-0
0.52383091	-60.0724155657163	-128.20416949941	-0
0.52427925	-60.1284836057969	-128.047415339835	-0
0.5247276	-60.1838425587566	-127.890897620091	-0
0.52517594	-60.2384019563548	-127.734587720994	-0
0.52562428	-60.2920676126299	-127.578562925746	-0
0.52607262	-60.3448169249191	-127.422687661184	-0
0.52652096	-60.3966387605818	-127.267038080982	-0
0.52696931	-60.447582691598	-127.11147081883	-0
0.52741765	-60.4976752520996	-126.95565731163	-0
0.52786599	-60.5468766045184	-126.799589729314	-0
0.52831433	-60.5951620729789	-126.643445847614	-0
0.52876268	-60.642584596346	-126.487295353256	-0
0.52921102	-60.689158206763	-126.331177538277	-0
0.52965936	-60.7348730400155	-126.175164769736	-0
0.5301077	-60.7797229394981	-126.01929012375	-0
0.53055605	-60.823701240556	-125.863591675905	-0
0.53100439	-60.8668068382811	-125.708051620829	-0
0.53145273	-60.9090382021923	-125.55265817546	-0
0.53190107	-60.9503988569034	-125.397349985212	-0
0.53234942	-60.9908932421562	-125.242059327146	-0
0.53279776	-61.0305321907746	-125.086656598661	-0
0.5332461	-61.0693092322828	-124.931186973693	-0
0.53369444	-61.1072126336693	-124.775747140166	-0
0.53414278	-61.1442296793428	-124.620444488507	-0
0.53459113	-61.180355090673	-124.465311751145	-0
0.53503947	-61.2155903708761	-124.310315828425	-0
0.53548781	-61.2499443147771	-124.155349226087	-0
0.53593615	-61.2834346130503	-124.000218021741	-0
0.5363845	-61.3160798762744	-123.844715598912	-0
0.53683284	-61.3479134345272	-123.688491733676	-0
0.53728118	-61.3789819733576	-123.5310587572	-0
0.53772952	-61.4093225400363	-123.372025948504	-0
0.53817787	-61.438934188854	-123.211175151819	-0
0.53861645	-61.4677405685978	-123.048603137882	-0
0.53907092	-61.4957069020752	-122.884443486036	-0
0.53952538	-61.5227722313711	-122.718995540791	-0
0.53997985	-61.5488690431139	-122.552625128379	-0
0.54043432	-61.5740019991902	-122.385753337203	-0
0.54088878	-61.5982298074889	-122.218547413494	-0
0.54134325	-61.6215518373926	-122.051274252328	-0
0.54179771	-61.6440123188842	-121.884319351498	-0
0.54225218	-61.6657255817769	-121.71771868474	-0
0.54270665	-61.6867852198633	-121.551254650803	-0
0.54314415	-61.7071599468465	-121.384842288867	-0
0.54363193	-61.7268440167245	-121.218544599011	-0
0.54411971	-61.7458698662131	-121.052182998219	-0
0.54460749	-61.764235400729	-120.885467206593	-0
0.54509527	-61.7818270014874	-120.718402333258	-0
0.54558304	-61.7985735858169	-120.551227584468	-0
0.54607082	-61.8144355715112	-120.384013958657	-0
0.5465586	-61.8293156350694	-120.216903185051	-0
0.54704638	-61.8431889080333	-120.050142157957	-0
0.54753416	-61.8560616677754	-119.883830344282	-0
0.54795942	-61.8678637245511	-119.71818170455	-0
0.54853718	-61.8785764429776	-119.55358805082	-0
0.54902854	-61.888223907806	-119.39011404659	-0
0.54969144	-61.8967748743518	-119.227711631771	-0
0.55049771	-61.9042702166013	-119.066379620248	-0
0.55089749	-61.9107632465808	-118.905828892307	-0
0.55129726	-61.9162087097683	-118.745784711851	-0
0.55151454	-61.9205990449161	-118.586120611961	-0
0.55192566	-61.9239494728024	-118.426266358079	-0
0.55235522	-61.9261961563949	-118.265662669017	-0
0.55278478	-61.9273425902583	-118.103934345397	-0
0.55308095	-61.9274044360874	-117.940576049396	-0
0.55360133	-61.9263183373662	-117.775491789165	-0
0.5540699	-61.9240674273967	-117.609070837838	-0
0.55453847	-61.9206538661704	-117.441504886019	-0
0.55471019	-61.9159689482437	-117.273188341413	-0
0.55511332	-61.9099523589117	-117.104848489863	-0
0.55558573	-61.9026537732957	-116.936662533838	-0
0.55605813	-61.8941453349491	-116.768542751975	-0
0.55640381	-61.8843923252179	-116.600587299363	-0
0.55695809	-61.8734231899061	-116.433081867618	-0
0.55751238	-61.8613259428769	-116.265793327362	-0
0.55789161	-61.8481653409587	-116.097838639979	-0
0.55835395	-61.833891072493	-115.928435112085	-0
0.55881628	-61.8184639143062	-115.756899165796	-0
0.55916481	-61.8018141031737	-115.582769516493	-0
0.55976177	-61.7837781383367	-115.406388799222	-0
0.56035873	-61.764268533971	-115.228342098093	-0
0.56076026	-61.7432732029925	-115.049004653407	-0
0.56123066	-61.7208018475485	-114.868898058559	-0
0.56170105	-61.6968720944901	-114.688710574074	-0
0.5620691	-61.671592335015	-114.508696953264	-0
0.56260125	-61.6450334686334	-114.329073721409	-0
0.5631334	-61.617254417674	-114.149954701145	-0
0.5634465	-61.5883411768813	-113.971349157031	-0
0.56406653	-61.558406946603	-113.793070936039	-0
0.56468655	-61.5274961781152	-113.614629848974	-0
0.56509002	-61.4956507155939	-113.435899986638	-0
0.56555123	-61.462860860083	-113.256995337154	-0
0.56601244	-61.429223324498	-113.077927034185	-0
0.56633822	-61.3948136315286	-112.898784864496	-0
0.56714251	-61.3595903051366	-112.719959512601	-0
0.56760469	-61.3233640846236	-112.541820002557	-0
0.56806687	-61.2860780989974	-112.364595382036	-0
0.56823133	-61.2476034029003	-112.187724352036	-0
0.56864576	-61.2077134890231	-112.010772155986	-0
0.56912734	-61.166381149647	-111.833442271554	-0
0.56960893	-61.1235474131759	-111.655113167546	-0
0.56999005	-61.0790501573679	-111.475500513614	-0
0.57054621	-61.0328683386369	-111.294333912803	-0
0.57110236	-60.9849613066165	-111.110919215902	-0
0.57144768	-60.9351895646065	-110.925090157291	-0
0.57201098	-60.8835283058756	-110.73657306257	-0
0.57257428	-60.8299068728438	-110.544917111103	-0
0.57296571	-60.7741576049131	-110.350199543088	-0
0.57347529	-60.7162478854573	-110.152183840357	-0
0.57398487	-60.6561689207461	-109.950323486403	-0
0.57432561	-60.5938623692364	-109.744986383612	-0
0.57511792	-60.5294164705999	-109.536491221466	-0
0.57591024	-60.46289321662	-109.325015432516	-0
0.57661546	-60.394254752407	-109.111309960092	-0
0.57709055	-60.3235689927564	-108.895740967723	-0
0.57756564	-60.2509208168496	-108.678127268341	-0
0.57803762	-60.1763425838517	-108.458914146085	-0
0.57852523	-60.1000274217882	-108.238450721132	-0
0.57902686	-60.0221159008978	-108.016574712466	-0
0.57952849	-59.9425764555288	-107.793665779555	-0
0.57991391	-59.861445079921	-107.570178195935	-0
0.58056101	-59.7788460415147	-107.346159129919	-0
0.58120811	-59.6947018446783	-107.121477250789	-0
0.58161175	-59.6089450888641	-106.896410855828	-0
0.58214423	-59.5215644577867	-106.671163936321	-0
0.58267671	-59.4325531714156	-106.445830651089	-0
0.58306476	-59.341913309434	-106.220451931725	-0
0.58370254	-59.2496239654012	-105.995205736346	-0
